<?xml version="1.0" encoding="UTF-8" standalone="no"?>
<!DOCTYPE svg PUBLIC "-//W3C//DTD SVG 1.1//EN" "http://www.w3.org/Graphics/SVG/1.1/DTD/svg11.dtd">
<svg width="100%" height="100%" viewBox="0 0 1407 241" version="1.1" xmlns="http://www.w3.org/2000/svg" xmlns:xlink="http://www.w3.org/1999/xlink" xml:space="preserve" xmlns:serif="http://www.serif.com/" style="fill-rule:evenodd;clip-rule:evenodd;stroke-linejoin:round;stroke-miterlimit:2;">
    <g transform="matrix(1,0,0,1,-58893,-24215)">
        <g transform="matrix(1,0,0,1,52427,23969.8)">
            <g transform="matrix(6.04609,0,0,6.04609,-50989.2,-355.43)">
                <g transform="matrix(55.6656,0,0,55.6656,9502.41,139.068)">
                    <path d="M0.234,-0.5C0.255,-0.5 0.275,-0.497 0.293,-0.49C0.31,-0.483 0.325,-0.474 0.338,-0.462C0.351,-0.45 0.36,-0.436 0.367,-0.42C0.374,-0.403 0.377,-0.385 0.377,-0.366L0.377,-0.076C0.378,-0.059 0.38,-0.047 0.385,-0.041C0.39,-0.034 0.395,-0.031 0.402,-0.031C0.415,-0.031 0.426,-0.037 0.434,-0.049C0.441,-0.061 0.448,-0.074 0.454,-0.088C0.451,-0.08 0.447,-0.071 0.443,-0.061C0.439,-0.05 0.434,-0.041 0.428,-0.032C0.421,-0.023 0.413,-0.015 0.404,-0.009C0.395,-0.003 0.383,-0 0.368,-0C0.354,-0 0.343,-0.004 0.336,-0.011C0.329,-0.018 0.323,-0.027 0.32,-0.036C0.316,-0.046 0.314,-0.058 0.314,-0.071L0.314,-0.192C0.31,-0.167 0.302,-0.142 0.29,-0.119C0.278,-0.097 0.264,-0.076 0.248,-0.059C0.231,-0.041 0.214,-0.027 0.195,-0.016C0.176,-0.005 0.158,-0 0.14,-0C0.117,-0 0.098,-0.004 0.081,-0.013C0.064,-0.021 0.051,-0.032 0.041,-0.045C0.03,-0.058 0.023,-0.072 0.018,-0.089C0.013,-0.106 0.01,-0.122 0.01,-0.138C0.01,-0.169 0.017,-0.193 0.031,-0.212C0.045,-0.23 0.064,-0.245 0.087,-0.257C0.111,-0.269 0.138,-0.28 0.169,-0.289C0.199,-0.298 0.23,-0.308 0.263,-0.32C0.28,-0.325 0.292,-0.334 0.301,-0.345C0.31,-0.356 0.314,-0.37 0.314,-0.386C0.314,-0.4 0.313,-0.414 0.311,-0.427C0.308,-0.44 0.304,-0.452 0.299,-0.463C0.293,-0.473 0.285,-0.481 0.276,-0.488C0.266,-0.494 0.253,-0.497 0.237,-0.497C0.204,-0.497 0.178,-0.493 0.159,-0.484C0.139,-0.475 0.123,-0.465 0.112,-0.453C0.101,-0.441 0.093,-0.429 0.088,-0.417C0.083,-0.404 0.08,-0.394 0.077,-0.387L0.01,-0.374C0.016,-0.379 0.021,-0.389 0.027,-0.403C0.032,-0.416 0.041,-0.43 0.055,-0.445C0.068,-0.459 0.089,-0.472 0.117,-0.483C0.144,-0.494 0.183,-0.5 0.234,-0.5ZM0.081,-0.156C0.081,-0.143 0.083,-0.13 0.086,-0.117C0.089,-0.104 0.095,-0.092 0.102,-0.082C0.109,-0.071 0.119,-0.063 0.131,-0.056C0.142,-0.049 0.156,-0.046 0.173,-0.046C0.192,-0.046 0.211,-0.052 0.228,-0.064C0.245,-0.076 0.261,-0.091 0.275,-0.11C0.288,-0.125 0.298,-0.142 0.305,-0.162C0.311,-0.181 0.314,-0.2 0.314,-0.219L0.314,-0.365C0.309,-0.35 0.3,-0.337 0.289,-0.328C0.277,-0.318 0.264,-0.31 0.25,-0.303C0.235,-0.296 0.22,-0.289 0.204,-0.284C0.188,-0.279 0.173,-0.273 0.158,-0.267C0.143,-0.26 0.13,-0.253 0.118,-0.245C0.107,-0.236 0.098,-0.226 0.092,-0.213C0.085,-0.197 0.081,-0.178 0.081,-0.156Z" style="fill:white;fill-rule:nonzero;"/>
                </g>
                <g transform="matrix(55.6656,0,0,55.6656,9528.24,139.068)">
                    <path d="M0.01,-0.088C0.013,-0.079 0.018,-0.069 0.025,-0.057C0.032,-0.045 0.039,-0.037 0.046,-0.034C0.051,-0.032 0.057,-0.031 0.062,-0.031C0.069,-0.031 0.074,-0.034 0.079,-0.041C0.084,-0.047 0.086,-0.059 0.087,-0.076L0.087,-0.649L0.137,-0.699C0.143,-0.706 0.148,-0.71 0.15,-0.713L0.15,-0.42C0.171,-0.445 0.197,-0.464 0.227,-0.478C0.256,-0.493 0.288,-0.5 0.322,-0.5C0.355,-0.5 0.385,-0.494 0.414,-0.481C0.443,-0.468 0.468,-0.45 0.49,-0.427C0.511,-0.404 0.528,-0.378 0.541,-0.347C0.553,-0.317 0.559,-0.285 0.559,-0.25C0.559,-0.215 0.553,-0.183 0.541,-0.153C0.528,-0.122 0.511,-0.096 0.49,-0.073C0.468,-0.05 0.443,-0.033 0.414,-0.02C0.385,-0.007 0.355,-0 0.322,-0C0.288,-0 0.256,-0.007 0.227,-0.021C0.197,-0.036 0.171,-0.055 0.15,-0.08L0.15,-0.071C0.15,-0.058 0.148,-0.046 0.144,-0.036C0.141,-0.027 0.136,-0.018 0.129,-0.011C0.122,-0.004 0.111,-0 0.096,-0C0.081,-0 0.069,-0.003 0.06,-0.009C0.051,-0.015 0.043,-0.023 0.037,-0.032C0.03,-0.041 0.025,-0.05 0.021,-0.061C0.017,-0.071 0.013,-0.08 0.01,-0.088ZM0.15,-0.085L0.159,-0.076C0.172,-0.063 0.187,-0.053 0.204,-0.048C0.221,-0.042 0.239,-0.039 0.258,-0.039C0.292,-0.039 0.325,-0.047 0.358,-0.064C0.39,-0.08 0.419,-0.101 0.445,-0.127C0.47,-0.153 0.491,-0.183 0.506,-0.216C0.522,-0.249 0.53,-0.282 0.53,-0.315C0.53,-0.336 0.527,-0.356 0.52,-0.375C0.513,-0.393 0.502,-0.409 0.488,-0.423C0.475,-0.435 0.46,-0.444 0.443,-0.45C0.426,-0.456 0.407,-0.459 0.388,-0.459C0.356,-0.459 0.324,-0.451 0.291,-0.436C0.258,-0.42 0.226,-0.397 0.197,-0.367C0.182,-0.351 0.17,-0.333 0.162,-0.312C0.154,-0.291 0.15,-0.27 0.15,-0.248L0.15,-0.085Z" style="fill:white;fill-rule:nonzero;"/>
                </g>
                <g transform="matrix(55.6656,0,0,55.6656,9559.91,139.068)">
                    <path d="M0.01,-0.251C0.01,-0.286 0.016,-0.318 0.029,-0.348C0.041,-0.379 0.058,-0.405 0.079,-0.428C0.1,-0.451 0.125,-0.469 0.154,-0.482C0.183,-0.495 0.213,-0.502 0.246,-0.502C0.279,-0.502 0.309,-0.495 0.338,-0.482C0.367,-0.469 0.392,-0.451 0.413,-0.428C0.434,-0.405 0.451,-0.379 0.464,-0.348C0.476,-0.318 0.482,-0.286 0.482,-0.251C0.482,-0.216 0.476,-0.184 0.464,-0.153C0.451,-0.122 0.434,-0.096 0.413,-0.073C0.392,-0.05 0.367,-0.033 0.338,-0.02C0.309,-0.007 0.279,-0 0.246,-0C0.213,-0 0.183,-0.007 0.154,-0.02C0.125,-0.033 0.1,-0.05 0.079,-0.073C0.058,-0.096 0.041,-0.122 0.029,-0.153C0.016,-0.184 0.01,-0.216 0.01,-0.251ZM0.039,-0.184C0.039,-0.141 0.052,-0.106 0.078,-0.079C0.103,-0.052 0.138,-0.039 0.181,-0.039C0.215,-0.039 0.248,-0.047 0.281,-0.064C0.314,-0.08 0.343,-0.101 0.369,-0.128C0.394,-0.154 0.415,-0.184 0.431,-0.217C0.446,-0.25 0.454,-0.283 0.454,-0.316C0.454,-0.337 0.451,-0.357 0.444,-0.375C0.437,-0.392 0.428,-0.407 0.415,-0.42C0.402,-0.433 0.387,-0.443 0.37,-0.45C0.353,-0.457 0.333,-0.461 0.312,-0.461C0.278,-0.461 0.245,-0.453 0.212,-0.437C0.179,-0.421 0.15,-0.4 0.125,-0.374C0.099,-0.347 0.078,-0.318 0.063,-0.284C0.047,-0.252 0.039,-0.218 0.039,-0.184Z" style="fill:white;fill-rule:nonzero;"/>
                </g>
                <g transform="matrix(55.6656,0,0,55.6656,9588.97,139.068)">
                    <path d="M0.011,-0.498C0.011,-0.499 0.012,-0.5 0.014,-0.5L0.124,-0.5L0.124,-0.495L0.099,-0.495C0.09,-0.495 0.083,-0.491 0.08,-0.483C0.076,-0.475 0.074,-0.464 0.074,-0.451L0.074,-0.202C0.074,-0.176 0.077,-0.151 0.082,-0.128C0.086,-0.104 0.095,-0.083 0.106,-0.066C0.117,-0.049 0.131,-0.035 0.148,-0.025C0.165,-0.014 0.185,-0.009 0.21,-0.009C0.228,-0.009 0.247,-0.013 0.267,-0.02C0.286,-0.027 0.304,-0.038 0.321,-0.055C0.337,-0.071 0.351,-0.093 0.362,-0.121C0.373,-0.148 0.38,-0.182 0.382,-0.223L0.382,-0.428C0.382,-0.441 0.384,-0.453 0.388,-0.464C0.391,-0.473 0.397,-0.482 0.405,-0.489C0.412,-0.496 0.423,-0.5 0.437,-0.5C0.45,-0.5 0.462,-0.497 0.471,-0.492C0.48,-0.486 0.488,-0.479 0.495,-0.47C0.502,-0.461 0.507,-0.452 0.511,-0.442C0.515,-0.432 0.519,-0.423 0.522,-0.415C0.517,-0.428 0.51,-0.44 0.502,-0.452C0.494,-0.463 0.484,-0.469 0.471,-0.469C0.464,-0.469 0.458,-0.466 0.453,-0.46C0.448,-0.454 0.446,-0.442 0.446,-0.425C0.446,-0.421 0.446,-0.413 0.446,-0.4C0.445,-0.387 0.445,-0.372 0.445,-0.354C0.445,-0.336 0.445,-0.316 0.445,-0.295C0.444,-0.274 0.444,-0.252 0.444,-0.231L0.444,-0.062L0.382,-0L0.382,-0.079C0.361,-0.055 0.335,-0.036 0.306,-0.021C0.277,-0.007 0.245,-0 0.211,-0C0.177,-0 0.145,-0.008 0.115,-0.023C0.085,-0.038 0.06,-0.059 0.041,-0.086C0.035,-0.094 0.03,-0.106 0.026,-0.122C0.022,-0.138 0.019,-0.155 0.017,-0.173C0.014,-0.192 0.013,-0.21 0.012,-0.228C0.011,-0.246 0.01,-0.261 0.01,-0.272L0.011,-0.498ZM0.523,-0.412C0.523,-0.413 0.523,-0.413 0.523,-0.413C0.522,-0.414 0.522,-0.414 0.522,-0.415C0.522,-0.414 0.522,-0.414 0.523,-0.413C0.523,-0.413 0.523,-0.413 0.523,-0.412Z" style="fill:white;fill-rule:nonzero;"/>
                </g>
                <g transform="matrix(55.6656,0,0,55.6656,9618.64,139.068)">
                    <path d="M0.01,-0.425L0.113,-0.563L0.113,-0.5L0.227,-0.5C0.201,-0.458 0.163,-0.437 0.113,-0.437L0.113,-0.076C0.114,-0.056 0.117,-0.043 0.124,-0.037C0.131,-0.03 0.141,-0.03 0.155,-0.035C0.162,-0.038 0.168,-0.045 0.175,-0.057C0.182,-0.069 0.187,-0.079 0.191,-0.088C0.188,-0.08 0.184,-0.071 0.18,-0.061C0.176,-0.051 0.171,-0.042 0.165,-0.033C0.158,-0.024 0.15,-0.016 0.141,-0.01C0.131,-0.003 0.119,-0 0.105,-0C0.091,-0 0.08,-0.004 0.073,-0.011C0.065,-0.018 0.059,-0.027 0.056,-0.036C0.052,-0.046 0.05,-0.058 0.05,-0.071L0.05,-0.425L0.01,-0.425Z" style="fill:white;fill-rule:nonzero;"/>
                </g>
                <g transform="matrix(55.6656,0,0,55.6656,9658.55,139.068)">
                    <path d="M0.01,-0.088C0.013,-0.082 0.017,-0.076 0.02,-0.069C0.023,-0.062 0.027,-0.056 0.031,-0.051C0.035,-0.045 0.04,-0.04 0.045,-0.037C0.05,-0.033 0.056,-0.031 0.063,-0.031C0.07,-0.031 0.076,-0.034 0.081,-0.041C0.086,-0.047 0.088,-0.059 0.089,-0.076L0.089,-0.437L0.151,-0.5L0.151,-0.421C0.172,-0.446 0.198,-0.465 0.228,-0.479C0.257,-0.493 0.289,-0.5 0.324,-0.5C0.357,-0.5 0.388,-0.493 0.416,-0.48C0.443,-0.466 0.468,-0.446 0.489,-0.42C0.51,-0.445 0.536,-0.465 0.566,-0.479C0.595,-0.493 0.627,-0.5 0.662,-0.5C0.701,-0.5 0.734,-0.494 0.759,-0.481C0.785,-0.468 0.806,-0.449 0.821,-0.425C0.836,-0.401 0.846,-0.372 0.852,-0.339C0.858,-0.306 0.861,-0.269 0.861,-0.228L0.86,-0.003C0.86,-0.001 0.859,-0 0.857,-0L0.746,-0L0.746,-0.004L0.772,-0.004C0.781,-0.004 0.788,-0.008 0.792,-0.017C0.795,-0.025 0.797,-0.036 0.797,-0.049L0.797,-0.299C0.797,-0.325 0.795,-0.35 0.79,-0.373C0.785,-0.396 0.777,-0.417 0.766,-0.435C0.755,-0.452 0.742,-0.466 0.725,-0.476C0.708,-0.487 0.687,-0.492 0.662,-0.492C0.648,-0.492 0.634,-0.49 0.619,-0.486C0.604,-0.482 0.59,-0.476 0.577,-0.467C0.563,-0.458 0.55,-0.447 0.538,-0.433C0.526,-0.418 0.516,-0.4 0.508,-0.379C0.508,-0.382 0.508,-0.382 0.509,-0.377C0.51,-0.372 0.511,-0.364 0.513,-0.355C0.514,-0.345 0.515,-0.334 0.517,-0.323C0.518,-0.311 0.519,-0.3 0.52,-0.29C0.522,-0.269 0.523,-0.249 0.523,-0.228L0.522,-0.003C0.522,-0.001 0.521,-0 0.52,-0L0.409,-0L0.409,-0.004L0.434,-0.004C0.443,-0.004 0.45,-0.008 0.454,-0.017C0.457,-0.025 0.459,-0.036 0.459,-0.049L0.459,-0.299C0.459,-0.326 0.457,-0.351 0.452,-0.374C0.447,-0.397 0.44,-0.418 0.43,-0.435C0.419,-0.452 0.406,-0.466 0.389,-0.476C0.372,-0.486 0.35,-0.491 0.325,-0.491C0.306,-0.491 0.286,-0.487 0.266,-0.48C0.245,-0.472 0.227,-0.459 0.21,-0.441C0.193,-0.423 0.179,-0.399 0.168,-0.369C0.157,-0.338 0.151,-0.3 0.151,-0.254L0.151,-0.065C0.151,-0.061 0.15,-0.055 0.149,-0.048C0.147,-0.041 0.144,-0.034 0.14,-0.027C0.136,-0.02 0.131,-0.013 0.124,-0.008C0.117,-0.003 0.107,-0 0.096,-0C0.082,-0 0.07,-0.003 0.061,-0.009C0.052,-0.015 0.044,-0.023 0.037,-0.032C0.03,-0.041 0.025,-0.05 0.021,-0.061C0.017,-0.071 0.013,-0.08 0.01,-0.088Z" style="fill:white;fill-rule:nonzero;"/>
                </g>
                <g transform="matrix(55.6656,0,0,55.6656,9708.71,139.068)">
                    <path d="M0.01,-0.25C0.01,-0.285 0.016,-0.317 0.029,-0.347C0.041,-0.378 0.058,-0.404 0.08,-0.427C0.101,-0.45 0.126,-0.468 0.155,-0.481C0.184,-0.494 0.214,-0.5 0.247,-0.5C0.281,-0.5 0.313,-0.492 0.343,-0.475C0.373,-0.459 0.4,-0.439 0.424,-0.415C0.427,-0.412 0.428,-0.409 0.428,-0.405C0.428,-0.4 0.427,-0.396 0.424,-0.393C0.421,-0.389 0.416,-0.387 0.411,-0.387L0.141,-0.387C0.138,-0.384 0.134,-0.381 0.131,-0.378C0.128,-0.375 0.124,-0.371 0.12,-0.368C0.093,-0.34 0.073,-0.31 0.059,-0.278C0.046,-0.245 0.039,-0.214 0.039,-0.184C0.039,-0.137 0.054,-0.1 0.083,-0.075C0.112,-0.049 0.149,-0.036 0.195,-0.036C0.231,-0.036 0.263,-0.043 0.292,-0.056C0.321,-0.069 0.347,-0.086 0.37,-0.108C0.393,-0.129 0.414,-0.154 0.433,-0.181C0.451,-0.208 0.467,-0.236 0.482,-0.265L0.482,-0.25C0.482,-0.215 0.476,-0.183 0.464,-0.153C0.451,-0.122 0.434,-0.096 0.413,-0.073C0.392,-0.05 0.367,-0.033 0.338,-0.02C0.309,-0.007 0.279,-0 0.247,-0C0.214,-0 0.184,-0.007 0.155,-0.02C0.126,-0.033 0.101,-0.05 0.08,-0.073C0.058,-0.096 0.041,-0.122 0.029,-0.153C0.016,-0.183 0.01,-0.215 0.01,-0.25ZM0.147,-0.393L0.402,-0.393C0.408,-0.393 0.412,-0.396 0.415,-0.402C0.418,-0.407 0.417,-0.412 0.412,-0.417C0.397,-0.436 0.38,-0.449 0.363,-0.456C0.345,-0.463 0.327,-0.467 0.31,-0.467C0.289,-0.467 0.268,-0.463 0.249,-0.456C0.23,-0.448 0.212,-0.439 0.197,-0.43C0.179,-0.419 0.162,-0.407 0.147,-0.393Z" style="fill:white;fill-rule:nonzero;"/>
                </g>
            </g>
        </g>
    </g>
</svg>
