<?xml version="1.0" encoding="UTF-8" standalone="no"?>
<!DOCTYPE svg PUBLIC "-//W3C//DTD SVG 1.1//EN" "http://www.w3.org/Graphics/SVG/1.1/DTD/svg11.dtd">
<svg width="100%" height="100%" viewBox="0 0 153 160" version="1.1" xmlns="http://www.w3.org/2000/svg" xmlns:xlink="http://www.w3.org/1999/xlink" xml:space="preserve" xmlns:serif="http://www.serif.com/" style="fill-rule:evenodd;clip-rule:evenodd;stroke-linejoin:round;stroke-miterlimit:2;">
    <g transform="matrix(1,0,0,1,-56591,-22436)">
        <g transform="matrix(1,0,0,1,49112.3,21673.6)">
            <g transform="matrix(1,0,0,1,-48499.7,-21067.6)">
                <g transform="matrix(0.902085,-0.431559,0.431559,0.902085,-3955.29,26317.5)">
                    <g transform="matrix(48,0,0,48,56019.3,21875.2)">
                        <path d="M0.07,-0L0.19,-0L0.19,-0.304L0.531,-0.304L0.531,-0L0.652,-0L0.652,-0.72L0.531,-0.72L0.531,-0.417L0.19,-0.417L0.19,-0.72L0.07,-0.72L0.07,-0Z" style="fill:white;fill-rule:nonzero;"/>
                    </g>
                </g>
                <g transform="matrix(0.971435,0.237304,-0.237304,0.971435,6788.82,-12676.9)">
                    <g transform="matrix(48,0,0,48,56051.9,21861.1)">
                        <path d="M0.17,-0.236L0.56,-0.236C0.574,-0.431 0.476,-0.555 0.309,-0.555C0.15,-0.555 0.04,-0.441 0.04,-0.264C0.04,-0.1 0.152,0.015 0.315,0.015C0.42,0.015 0.513,-0.041 0.554,-0.139L0.435,-0.175C0.412,-0.125 0.368,-0.098 0.309,-0.098C0.227,-0.098 0.179,-0.147 0.17,-0.236ZM0.314,-0.45C0.388,-0.45 0.427,-0.412 0.438,-0.328L0.173,-0.328C0.187,-0.408 0.233,-0.45 0.314,-0.45Z" style="fill:white;fill-rule:nonzero;"/>
                    </g>
                </g>
                <g transform="matrix(0.767403,0.641165,-0.641165,0.767403,27066,-30869.4)">
                    <g transform="matrix(48,0,0,48,56079.5,21869.7)">
                        <rect x="0.08" y="-0.735" width="0.12" height="0.735" style="fill:white;fill-rule:nonzero;"/>
                    </g>
                </g>
                <g transform="matrix(0.553708,0.832711,-0.832711,0.553708,43250.8,-36942.5)">
                    <g transform="matrix(48,0,0,48,56089.9,21878.4)">
                        <rect x="0.08" y="-0.735" width="0.12" height="0.735" style="fill:white;fill-rule:nonzero;"/>
                    </g>
                </g>
                <g transform="matrix(0.119994,0.992775,-0.992775,0.119994,71098.8,-36431.2)">
                    <g transform="matrix(48,0,0,48,56099.2,21889.3)">
                        <path d="M0.309,0.015C0.47,0.015 0.578,-0.102 0.578,-0.27C0.578,-0.437 0.471,-0.555 0.309,-0.555C0.149,-0.555 0.04,-0.439 0.04,-0.27C0.04,-0.103 0.146,0.015 0.309,0.015ZM0.309,-0.098C0.216,-0.098 0.168,-0.165 0.168,-0.27C0.168,-0.372 0.212,-0.442 0.309,-0.442C0.403,-0.442 0.451,-0.375 0.451,-0.27C0.451,-0.169 0.404,-0.098 0.309,-0.098Z" style="fill:white;fill-rule:nonzero;"/>
                    </g>
                </g>
                <g transform="matrix(-0.374204,0.927346,-0.927346,-0.374204,97421,-21904.1)">
                    <g transform="matrix(48,0,0,48,56101.2,21919)">
                        <path d="M0.12,-0.18L0.24,-0.18L0.24,-0.72L0.12,-0.72L0.12,-0.18ZM0.12,-0L0.24,-0L0.24,-0.111L0.12,-0.111L0.12,-0Z" style="fill:white;fill-rule:nonzero;"/>
                    </g>
                </g>
                <g transform="matrix(-0.912347,0.409417,-0.409417,-0.912347,116248,19002.3)">
                    <g transform="matrix(48,0,0,48,56089.7,21944.9)">
                        <path d="M0.07,-0L0.19,-0L0.19,-0.304L0.531,-0.304L0.531,-0L0.652,-0L0.652,-0.72L0.531,-0.72L0.531,-0.417L0.19,-0.417L0.19,-0.72L0.07,-0.72L0.07,-0Z" style="fill:white;fill-rule:nonzero;"/>
                    </g>
                </g>
                <g transform="matrix(-0.966025,-0.258447,0.258447,-0.966025,104534,57658.1)">
                    <g transform="matrix(48,0,0,48,56056.8,21958.2)">
                        <path d="M0.17,-0.236L0.56,-0.236C0.574,-0.431 0.476,-0.555 0.309,-0.555C0.15,-0.555 0.04,-0.441 0.04,-0.264C0.04,-0.1 0.152,0.015 0.315,0.015C0.42,0.015 0.513,-0.041 0.554,-0.139L0.435,-0.175C0.412,-0.125 0.368,-0.098 0.309,-0.098C0.227,-0.098 0.179,-0.147 0.17,-0.236ZM0.314,-0.45C0.388,-0.45 0.427,-0.412 0.438,-0.328L0.173,-0.328C0.187,-0.408 0.233,-0.45 0.314,-0.45Z" style="fill:white;fill-rule:nonzero;"/>
                    </g>
                </g>
                <g transform="matrix(-0.752874,-0.658165,0.658165,-0.752874,83766.4,75350.5)">
                    <g transform="matrix(48,0,0,48,56029.4,21949)">
                        <rect x="0.08" y="-0.735" width="0.12" height="0.735" style="fill:white;fill-rule:nonzero;"/>
                    </g>
                </g>
                <g transform="matrix(-0.534795,-0.844982,0.844982,-0.534795,67439,81008.8)">
                    <g transform="matrix(48,0,0,48,56019.2,21940.1)">
                        <rect x="0.08" y="-0.735" width="0.12" height="0.735" style="fill:white;fill-rule:nonzero;"/>
                    </g>
                </g>
                <g transform="matrix(-0.0980209,-0.995184,0.995184,-0.0980209,39676.9,79818.9)">
                    <g transform="matrix(48,0,0,48,56010.1,21929)">
                        <path d="M0.309,0.015C0.47,0.015 0.578,-0.102 0.578,-0.27C0.578,-0.437 0.471,-0.555 0.309,-0.555C0.149,-0.555 0.04,-0.439 0.04,-0.27C0.04,-0.103 0.146,0.015 0.309,0.015ZM0.309,-0.098C0.216,-0.098 0.168,-0.165 0.168,-0.27C0.168,-0.372 0.212,-0.442 0.309,-0.442C0.403,-0.442 0.451,-0.375 0.451,-0.27C0.451,-0.169 0.404,-0.098 0.309,-0.098Z" style="fill:white;fill-rule:nonzero;"/>
                    </g>
                </g>
                <g transform="matrix(0.39542,-0.9185,0.9185,0.39542,13747.3,64683.9)">
                    <g transform="matrix(48,0,0,48,56008.8,21899.2)">
                        <path d="M0.12,-0.18L0.24,-0.18L0.24,-0.72L0.12,-0.72L0.12,-0.18ZM0.12,-0L0.24,-0L0.24,-0.111L0.12,-0.111L0.12,-0Z" style="fill:white;fill-rule:nonzero;"/>
                    </g>
                </g>
            </g>
        </g>
    </g>
</svg>
