<?xml version="1.0" encoding="UTF-8" standalone="no"?>
<!DOCTYPE svg PUBLIC "-//W3C//DTD SVG 1.1//EN" "http://www.w3.org/Graphics/SVG/1.1/DTD/svg11.dtd">
<svg width="100%" height="100%" viewBox="0 0 36 30" version="1.1" xmlns="http://www.w3.org/2000/svg" xmlns:xlink="http://www.w3.org/1999/xlink" xml:space="preserve" xmlns:serif="http://www.serif.com/" style="fill-rule:evenodd;clip-rule:evenodd;stroke-linejoin:round;stroke-miterlimit:2;">
    <g transform="matrix(1,0,0,1,-55578,-21744)">
        <g transform="matrix(1,0,0,1,49112.3,21673.6)">
            <g transform="matrix(6.58226e-17,1.07496,-1.07496,6.58226e-17,7069.37,-7969.84)">
                <g transform="matrix(50.8464,1.42109e-14,1.06581e-14,50.8464,7474.19,558.305)">
                    <path d="M0.111,-0.352L0.234,-0.352L0.234,-0.475L0.111,-0.475L0.111,-0.352ZM0.11,-0.065L0.233,-0.065L0.233,-0.188L0.11,-0.188L0.11,-0.065Z" style="fill:white;fill-rule:nonzero;"/>
                </g>
                <g transform="matrix(4.98618e-17,-0.814306,0.778595,4.76752e-17,1591.19,27362.8)">
                    <path d="M32914.1,7577.52C32914.1,7588.47 32922.9,7597.43 32933.9,7597.43C32944.9,7597.43 32953.7,7588.47 32953.7,7577.52L32947.5,7577.52C32947.5,7585.01 32941.4,7591.01 32933.9,7591.01C32926.4,7591.01 32920.3,7585.01 32920.3,7577.52L32914.1,7577.52Z" style="fill:white;"/>
                </g>
            </g>
        </g>
    </g>
</svg>
