<?xml version="1.0" encoding="UTF-8" standalone="no"?>
<!DOCTYPE svg PUBLIC "-//W3C//DTD SVG 1.1//EN" "http://www.w3.org/Graphics/SVG/1.1/DTD/svg11.dtd">
<svg width="100%" height="100%" viewBox="0 0 274 264" version="1.1" xmlns="http://www.w3.org/2000/svg" xmlns:xlink="http://www.w3.org/1999/xlink" xml:space="preserve" xmlns:serif="http://www.serif.com/" style="fill-rule:evenodd;clip-rule:evenodd;stroke-linejoin:round;stroke-miterlimit:2;">
    <g transform="matrix(1,0,0,1,-56530,-22312)">
        <g transform="matrix(1,0,0,1,49112.3,21673.6)">
            <g transform="matrix(1.08015,0.39197,-0.39197,1.08015,-25183.9,-20471.8)">
                <path d="M33088.7,7539.58L33108,7599.01L33158.6,7562.28L33139.3,7621.71L33201.8,7621.71L33151.2,7658.44L33201.8,7695.17L33139.3,7695.17L33158.6,7754.6L33108,7717.87L33088.7,7777.3L33069.4,7717.87L33018.8,7754.6L33038.2,7695.17L32975.7,7695.17L33026.2,7658.44L32975.7,7621.71L33038.2,7621.71L33018.8,7562.28L33069.4,7599.01L33088.7,7539.58Z" style="fill:rgb(65,115,253);"/>
            </g>
        </g>
    </g>
</svg>
